<svg width="24" height="28" viewBox="0 0 24 28" fill="none" xmlns="http://www.w3.org/2000/svg">
<path d="M1.6875 27.125C1.43886 27.125 1.2004 27.0262 1.02459 26.8504C0.848772 26.6746 0.75 26.4361 0.75 26.1875V2.99199C0.750067 2.74636 0.814473 2.50502 0.936807 2.29202C1.05914 2.07902 1.23513 1.90177 1.44727 1.77793C2.15625 1.36602 3.58477 0.875 6.375 0.875C8.55527 0.875 10.9939 1.73691 13.1455 2.49688C14.8781 3.10918 16.5146 3.6875 17.625 3.6875C19.0544 3.68318 20.4686 3.39436 21.7852 2.83789C21.9455 2.77021 22.1201 2.74326 22.2933 2.75944C22.4666 2.77561 22.6332 2.83442 22.7782 2.9306C22.9233 3.02679 23.0422 3.15737 23.1246 3.3107C23.2069 3.46403 23.25 3.63535 23.25 3.80938V16.6625C23.2498 16.8903 23.1831 17.1131 23.0583 17.3037C22.9334 17.4942 22.7557 17.6442 22.5469 17.7354C22.0365 17.9586 20.1732 18.6875 17.625 18.6875C16.2105 18.6875 14.4387 18.2691 12.5631 17.8256C10.4549 17.3275 8.2752 16.8125 6.375 16.8125C4.21465 16.8125 3.10898 17.1395 2.625 17.3463V26.1875C2.625 26.4361 2.52623 26.6746 2.35041 26.8504C2.1746 27.0262 1.93614 27.125 1.6875 27.125Z" fill="black"/>
</svg>
