<svg width="1024" height="1024" viewBox="0 0 1024 1024" fill="none" xmlns="http://www.w3.org/2000/svg">
<rect x="198" y="235" width="627" height="623" rx="72" fill="url(#paint0_linear_201_105)"/>
<circle cx="338.5" cy="476.5" r="50.75" fill="#033537" stroke="black" stroke-width="0.5"/>
<circle cx="495.5" cy="476.5" r="50.75" fill="#033537" stroke="black" stroke-width="0.5"/>
<circle cx="495.5" cy="760.5" r="50.75" fill="#033537" stroke="black" stroke-width="0.5"/>
<circle cx="495.5" cy="618.5" r="50.75" fill="#033537" stroke="black" stroke-width="0.5"/>
<circle cx="338.5" cy="618.5" r="50.75" fill="#033537" stroke="black" stroke-width="0.5"/>
<circle cx="338.5" cy="760.5" r="50.75" fill="#033537" stroke="black" stroke-width="0.5"/>
<g filter="url(#filter0_d_201_105)">
<path d="M608 629C608 634.523 612.477 639 618 639H715.336C721.056 639 725.65 643.804 724.86 649.468C716.848 706.842 667.581 751 608 751C542.83 751 490 698.17 490 633C490 571.197 537.513 520.492 598.004 515.417C603.507 514.956 608 519.477 608 525V629Z" fill="#0E5851"/>
</g>
<g filter="url(#filter1_d_201_105)">
<path d="M639.425 495.343C640.316 495.002 641.291 494.957 642.243 495.03C702.071 499.666 749.387 548.918 750.959 609.556C750.516 614.67 746.228 618.682 741 618.682H643C637.477 618.682 633 614.205 633 608.682V504.682C633 500.419 635.668 496.782 639.425 495.343Z" fill="#00E880"/>
</g>
<g filter="url(#filter2_d_201_105)">
<path d="M753 235C792.765 235 825 267.236 825 307V365H198V307C198 267.236 230.236 235 270 235H753Z" fill="url(#paint1_linear_201_105)"/>
</g>
<g filter="url(#filter3_d_201_105)">
<rect x="317" y="166" width="72" height="143" rx="36" fill="url(#paint2_linear_201_105)"/>
</g>
<g filter="url(#filter4_d_201_105)">
<rect x="633" y="166" width="72" height="143" rx="36" fill="url(#paint3_linear_201_105)"/>
</g>
<defs>
<filter id="filter0_d_201_105" x="440" y="465.385" width="334.948" height="335.615" filterUnits="userSpaceOnUse" color-interpolation-filters="sRGB">
<feFlood flood-opacity="0" result="BackgroundImageFix"/>
<feColorMatrix in="SourceAlpha" type="matrix" values="0 0 0 0 0 0 0 0 0 0 0 0 0 0 0 0 0 0 127 0" result="hardAlpha"/>
<feOffset/>
<feGaussianBlur stdDeviation="25"/>
<feComposite in2="hardAlpha" operator="out"/>
<feColorMatrix type="matrix" values="0 0 0 0 0 0 0 0 0 0 0 0 0 0 0 0 0 0 0.5 0"/>
<feBlend mode="normal" in2="BackgroundImageFix" result="effect1_dropShadow_201_105"/>
<feBlend mode="normal" in="SourceGraphic" in2="effect1_dropShadow_201_105" result="shape"/>
</filter>
<filter id="filter1_d_201_105" x="583" y="445" width="217.959" height="223.682" filterUnits="userSpaceOnUse" color-interpolation-filters="sRGB">
<feFlood flood-opacity="0" result="BackgroundImageFix"/>
<feColorMatrix in="SourceAlpha" type="matrix" values="0 0 0 0 0 0 0 0 0 0 0 0 0 0 0 0 0 0 127 0" result="hardAlpha"/>
<feOffset/>
<feGaussianBlur stdDeviation="25"/>
<feComposite in2="hardAlpha" operator="out"/>
<feColorMatrix type="matrix" values="0 0 0 0 0 0 0 0 0 0.909804 0 0 0 0 0.501961 0 0 0 0.5 0"/>
<feBlend mode="normal" in2="BackgroundImageFix" result="effect1_dropShadow_201_105"/>
<feBlend mode="normal" in="SourceGraphic" in2="effect1_dropShadow_201_105" result="shape"/>
</filter>
<filter id="filter2_d_201_105" x="173" y="230" width="677" height="180" filterUnits="userSpaceOnUse" color-interpolation-filters="sRGB">
<feFlood flood-opacity="0" result="BackgroundImageFix"/>
<feColorMatrix in="SourceAlpha" type="matrix" values="0 0 0 0 0 0 0 0 0 0 0 0 0 0 0 0 0 0 127 0" result="hardAlpha"/>
<feOffset dy="20"/>
<feGaussianBlur stdDeviation="12.5"/>
<feComposite in2="hardAlpha" operator="out"/>
<feColorMatrix type="matrix" values="0 0 0 0 0 0 0 0 0 0 0 0 0 0 0 0 0 0 0.3 0"/>
<feBlend mode="normal" in2="BackgroundImageFix" result="effect1_dropShadow_201_105"/>
<feBlend mode="normal" in="SourceGraphic" in2="effect1_dropShadow_201_105" result="shape"/>
</filter>
<filter id="filter3_d_201_105" x="297" y="166" width="112" height="183" filterUnits="userSpaceOnUse" color-interpolation-filters="sRGB">
<feFlood flood-opacity="0" result="BackgroundImageFix"/>
<feColorMatrix in="SourceAlpha" type="matrix" values="0 0 0 0 0 0 0 0 0 0 0 0 0 0 0 0 0 0 127 0" result="hardAlpha"/>
<feOffset dy="20"/>
<feGaussianBlur stdDeviation="10"/>
<feComposite in2="hardAlpha" operator="out"/>
<feColorMatrix type="matrix" values="0 0 0 0 0 0 0 0 0 0 0 0 0 0 0 0 0 0 0.25 0"/>
<feBlend mode="normal" in2="BackgroundImageFix" result="effect1_dropShadow_201_105"/>
<feBlend mode="normal" in="SourceGraphic" in2="effect1_dropShadow_201_105" result="shape"/>
</filter>
<filter id="filter4_d_201_105" x="613" y="166" width="112" height="183" filterUnits="userSpaceOnUse" color-interpolation-filters="sRGB">
<feFlood flood-opacity="0" result="BackgroundImageFix"/>
<feColorMatrix in="SourceAlpha" type="matrix" values="0 0 0 0 0 0 0 0 0 0 0 0 0 0 0 0 0 0 127 0" result="hardAlpha"/>
<feOffset dy="20"/>
<feGaussianBlur stdDeviation="10"/>
<feComposite in2="hardAlpha" operator="out"/>
<feColorMatrix type="matrix" values="0 0 0 0 0 0 0 0 0 0 0 0 0 0 0 0 0 0 0.25 0"/>
<feBlend mode="normal" in2="BackgroundImageFix" result="effect1_dropShadow_201_105"/>
<feBlend mode="normal" in="SourceGraphic" in2="effect1_dropShadow_201_105" result="shape"/>
</filter>
<linearGradient id="paint0_linear_201_105" x1="219.127" y1="251.575" x2="683.162" y2="938.197" gradientUnits="userSpaceOnUse">
<stop stop-color="#014442"/>
<stop offset="1" stop-color="#003C3B"/>
</linearGradient>
<linearGradient id="paint1_linear_201_105" x1="219.127" y1="238.459" x2="247.987" y2="443.104" gradientUnits="userSpaceOnUse">
<stop stop-color="#014442"/>
<stop offset="1" stop-color="#003C3B"/>
</linearGradient>
<linearGradient id="paint2_linear_201_105" x1="319.426" y1="169.805" x2="429.216" y2="251.078" gradientUnits="userSpaceOnUse">
<stop stop-color="#014442"/>
<stop offset="1" stop-color="#003C3B"/>
</linearGradient>
<linearGradient id="paint3_linear_201_105" x1="635.426" y1="169.805" x2="745.216" y2="251.078" gradientUnits="userSpaceOnUse">
<stop stop-color="#014442"/>
<stop offset="1" stop-color="#003C3B"/>
</linearGradient>
</defs>
</svg>
