<svg width="1024" height="1024" viewBox="0 0 1024 1024" fill="none" xmlns="http://www.w3.org/2000/svg">
<rect x="239" y="304.413" width="427.81" height="545" rx="35" transform="rotate(-8.65961 239 304.413)" fill="#003232"/>
<g filter="url(#filter0_d_201_54)">
<rect x="324.177" y="312" width="460" height="545" rx="35" fill="url(#paint0_linear_201_54)"/>
</g>
<path d="M667.539 495.3C673.396 489.442 682.894 489.441 688.753 495.299L713.032 519.575C718.89 525.433 718.89 534.93 713.033 540.788L517.194 736.652C511.638 742.209 502.807 742.495 496.914 737.511C496.416 737.125 495.938 736.703 495.481 736.246L395.57 636.323C389.713 630.465 389.713 620.968 395.571 615.11L416.484 594.2C422.342 588.343 431.84 588.344 437.697 594.202L496.101 652.614C500.006 656.52 506.339 656.52 510.244 652.614L667.539 495.3Z" fill="#00E880"/>
<rect x="386.177" y="377" width="336" height="54" rx="27" fill="#00E880"/>
<defs>
<filter id="filter0_d_201_54" x="294.177" y="282" width="500" height="585" filterUnits="userSpaceOnUse" color-interpolation-filters="sRGB">
<feFlood flood-opacity="0" result="BackgroundImageFix"/>
<feColorMatrix in="SourceAlpha" type="matrix" values="0 0 0 0 0 0 0 0 0 0 0 0 0 0 0 0 0 0 127 0" result="hardAlpha"/>
<feOffset dx="-10" dy="-10"/>
<feGaussianBlur stdDeviation="10"/>
<feComposite in2="hardAlpha" operator="out"/>
<feColorMatrix type="matrix" values="0 0 0 0 0 0 0 0 0 0 0 0 0 0 0 0 0 0 0.25 0"/>
<feBlend mode="normal" in2="BackgroundImageFix" result="effect1_dropShadow_201_54"/>
<feBlend mode="normal" in="SourceGraphic" in2="effect1_dropShadow_201_54" result="shape"/>
</filter>
<linearGradient id="paint0_linear_201_54" x1="339.677" y1="326.5" x2="767.177" y2="857" gradientUnits="userSpaceOnUse">
<stop stop-color="#014442"/>
<stop offset="1" stop-color="#003C3B"/>
</linearGradient>
</defs>
</svg>
