<svg width="1024" height="1024" viewBox="0 0 1024 1024" fill="none" xmlns="http://www.w3.org/2000/svg">
<path d="M314.641 407.5C357.141 472.5 272.921 497 323.421 582H701.921C701.921 582 732.626 530 714.421 494.5C694.421 455.5 702.921 427.5 702.921 427.5C702.921 427.5 686.671 433.5 679.421 462.5C675.921 476.5 683.921 498 660.421 498C659.921 498 638.921 498 647.921 457.5C653.906 430.57 664.85 413.5 657.421 387.5C645.421 345.5 598.421 325 608.421 270C562.421 298 580.686 336 581.921 339.5C584.921 348 604.062 395.642 566.921 398C540.973 399.647 528.297 355.462 527.421 345.5C523.421 300 536.421 290 540.921 268C541.637 264.5 560.921 178.5 477.921 147C515.421 209 439.421 250 439.421 300C439.421 338 477.921 376 439.421 384C423.1 387.391 407.384 368 395.921 344C379.921 310.5 402.921 264.5 402.921 264.5C402.921 264.5 315.801 334.905 368.421 412C389.921 443.5 397.048 484.355 377.421 488C342.421 494.5 381.141 432.5 314.641 407.5Z" fill="url(#paint0_linear_202_257)"/>
<path d="M673 577.785C673 577.785 676.5 521.285 609.5 514.285C558 447.285 512 486.285 512 486.285V716V844.285C512 844.285 559.5 914 609.5 844.285C609.5 844.285 684 847.785 681.5 763.785C681.5 763.785 752.5 727.785 705 664.285C734.5 594.785 673 577.785 673 577.785Z" fill="url(#paint1_linear_202_257)"/>
<path d="M609.5 514.285C676.5 521.285 673 577.785 673 577.785M609.5 514.285C623 577.785 570 573.285 570 573.285M609.5 514.285C558 447.285 512 486.285 512 486.285V844.285C512 844.285 559.5 914 609.5 844.285M570 573.285C542.5 549.785 567.5 531.285 567.5 531.285M570 573.285C544 598.785 562 617.285 562 617.285M673 577.785C601 583.285 630 638.285 639.5 641.285M673 577.785C673 577.785 734.5 594.785 705 664.285M705 664.285C705 664.285 695 690.285 663 693.285M705 664.285C752.5 727.785 681.5 763.785 681.5 763.785M681.5 763.785C659.5 721.785 627 736.785 627 736.785M681.5 763.785C684 847.785 609.5 844.285 609.5 844.285M627 736.785C627 736.785 616.5 739.285 609.5 747.285M627 736.785C627 736.785 627 709.785 598.5 704.785M609.5 844.285C623 790 575.5 788.785 575.5 788.785M575.5 788.785C564 788.785 552 798 552 798M575.5 788.785C564.5 775.285 570 752.785 570 752.785M512 716C568.942 708 531.942 663 602.442 663" stroke="#16282E" stroke-width="20" stroke-linecap="round" stroke-linejoin="round"/>
<path d="M437.058 872.364C480.258 887.964 505.058 858.531 512.058 841.864V711.605V486.287C475.5 461.028 430.5 481.605 417.5 514.105C374.3 513.705 350 543.605 350 574.105C296.5 607.605 311.716 647.698 323.558 663.364C314.558 668.698 303 680 303 703.605C303 738.389 323.229 746.531 338.058 753.864C317.5 798.105 371 837.605 392.543 834.864C400.248 850.284 415.336 864.52 437.058 872.364Z" fill="url(#paint2_linear_202_257)"/>
<path d="M409.558 775.364C441.158 760.564 456.058 778.531 459.558 789.364M409.558 775.364C385.947 786.422 381.094 811.951 392.543 834.864M409.558 775.364C403.249 758.265 407.287 741.953 422 732.864C433.921 725.5 441.421 727.787 453.5 724.105C467.548 719.823 475.421 706.105 475.421 694.787C475.421 683.468 471.616 677.105 465.058 671.105C458.5 665.105 437.058 658.605 437.058 658.605C437.058 658.605 450.5 644.105 446.5 624.605C442.5 605.105 425.5 603.105 425.5 603.105M392.543 834.864C400.248 850.284 415.336 864.52 437.058 872.364C480.258 887.964 505.058 858.531 512.058 841.864V711.605V486.287C475.5 461.028 430.5 481.605 417.5 514.105M392.543 834.864C371 837.605 317.5 798.105 338.058 753.864M367.558 732.864C350.558 735.864 342.854 745.148 338.058 753.864M338.058 753.864C323.229 746.531 303 738.389 303 703.605C303 680 314.558 668.698 323.558 663.364M323.558 663.364C338.058 654.772 361.938 648.797 382 667.605C398.421 683 395.5 698 395.5 698M323.558 663.364C311.716 647.698 296.5 607.605 350 574.105M350 574.105C353.5 615.605 379.334 622.772 395.5 624.605M350 574.105C350 543.605 374.3 513.705 417.5 514.105M417.5 514.105C395.5 557.864 447.558 594.364 465.058 557.864" stroke="#16282E" stroke-width="20" stroke-linecap="round" stroke-linejoin="round"/>
<defs>
<linearGradient id="paint0_linear_202_257" x1="513.454" y1="582" x2="513.454" y2="147" gradientUnits="userSpaceOnUse">
<stop stop-color="#37FDA1"/>
<stop offset="1" stop-color="#1BEAB7"/>
</linearGradient>
<linearGradient id="paint1_linear_202_257" x1="616.644" y1="475" x2="616.644" y2="875.27" gradientUnits="userSpaceOnUse">
<stop stop-color="#819BA6"/>
<stop offset="1" stop-color="#778F99"/>
</linearGradient>
<linearGradient id="paint2_linear_202_257" x1="407.529" y1="475" x2="407.529" y2="876.783" gradientUnits="userSpaceOnUse">
<stop stop-color="#8EA8B2"/>
<stop offset="1" stop-color="#728C97"/>
</linearGradient>
</defs>
</svg>
