<svg width="1024" height="1024" viewBox="0 0 1024 1024" fill="none" xmlns="http://www.w3.org/2000/svg">
<rect width="165" height="27" rx="13.5" transform="matrix(1 0 0 -1 285 573)" fill="url(#paint0_linear_202_243)"/>
<rect width="173.749" height="26.5946" rx="13.2973" transform="matrix(0.684574 -0.728943 -0.728943 -0.684574 354.138 765.876)" fill="url(#paint1_linear_202_243)"/>
<rect width="196.84" height="26.5946" rx="13.2973" transform="matrix(-0.687951 -0.725757 -0.725757 0.687951 720.749 733.115)" fill="url(#paint2_linear_202_243)"/>
<rect x="712.565" y="374.55" width="160.663" height="26.5946" rx="13.2973" transform="rotate(132.5 712.565 374.55)" fill="url(#paint3_linear_202_243)"/>
<circle cx="529" cy="556" r="121" fill="url(#paint4_linear_202_243)"/>
<rect width="164.699" height="26.5946" rx="13.2973" transform="matrix(0.67559 0.737277 0.737277 -0.67559 341.929 377.178)" fill="url(#paint5_linear_202_243)"/>
<circle cx="329.598" cy="343.598" r="62" transform="rotate(47.5 329.598 343.598)" fill="url(#paint6_linear_202_243)"/>
<rect width="147" height="27" rx="13.5" transform="matrix(0 -1 -1 0 543 785)" fill="url(#paint7_linear_202_243)"/>
<circle cx="529" cy="815.045" r="62" transform="rotate(-90 529 815.045)" fill="url(#paint8_linear_202_243)"/>
<circle cx="724.795" cy="757.145" r="62" transform="rotate(-133.468 724.795 757.145)" fill="url(#paint9_linear_202_243)"/>
<circle cx="273" cy="559" r="62" fill="url(#paint10_linear_202_243)"/>
<circle cx="62" cy="62" r="62" transform="matrix(-0.67559 0.737277 0.737277 0.67559 720.497 254)" fill="url(#paint11_linear_202_243)"/>
<defs>
<linearGradient id="paint0_linear_202_243" x1="142.841" y1="23.0393" x2="136.707" y2="-14.4487" gradientUnits="userSpaceOnUse">
<stop stop-color="#1D4058"/>
<stop offset="1" stop-color="#256178"/>
</linearGradient>
<linearGradient id="paint1_linear_202_243" x1="150.415" y1="22.6933" x2="144.744" y2="-14.3525" gradientUnits="userSpaceOnUse">
<stop stop-color="#1D4058"/>
<stop offset="1" stop-color="#256178"/>
</linearGradient>
<linearGradient id="paint2_linear_202_243" x1="170.405" y1="22.6933" x2="165.374" y2="-14.5408" gradientUnits="userSpaceOnUse">
<stop stop-color="#1D4058"/>
<stop offset="1" stop-color="#256178"/>
</linearGradient>
<linearGradient id="paint3_linear_202_243" x1="851.651" y1="397.244" x2="845.543" y2="360.341" gradientUnits="userSpaceOnUse">
<stop stop-color="#1D4058"/>
<stop offset="1" stop-color="#256178"/>
</linearGradient>
<linearGradient id="paint4_linear_202_243" x1="617.5" y1="641.5" x2="445" y2="469" gradientUnits="userSpaceOnUse">
<stop stop-color="#1D4058"/>
<stop offset="1" stop-color="#256178"/>
</linearGradient>
<linearGradient id="paint5_linear_202_243" x1="142.58" y1="22.6933" x2="136.614" y2="-14.257" gradientUnits="userSpaceOnUse">
<stop stop-color="#1D4058"/>
<stop offset="1" stop-color="#256178"/>
</linearGradient>
<linearGradient id="paint6_linear_202_243" x1="267.598" y1="343.598" x2="391.598" y2="343.598" gradientUnits="userSpaceOnUse">
<stop stop-color="#37FDA1"/>
<stop offset="1" stop-color="#1BEAB7"/>
</linearGradient>
<linearGradient id="paint7_linear_202_243" x1="127.258" y1="23.0393" x2="120.419" y2="-14.1963" gradientUnits="userSpaceOnUse">
<stop stop-color="#1D4058"/>
<stop offset="1" stop-color="#256178"/>
</linearGradient>
<linearGradient id="paint8_linear_202_243" x1="467" y1="815.045" x2="591" y2="815.045" gradientUnits="userSpaceOnUse">
<stop stop-color="#37FDA1"/>
<stop offset="1" stop-color="#1BEAB7"/>
</linearGradient>
<linearGradient id="paint9_linear_202_243" x1="662.795" y1="757.145" x2="786.795" y2="757.145" gradientUnits="userSpaceOnUse">
<stop stop-color="#37FDA1"/>
<stop offset="1" stop-color="#1BEAB7"/>
</linearGradient>
<linearGradient id="paint10_linear_202_243" x1="211" y1="559" x2="335" y2="559" gradientUnits="userSpaceOnUse">
<stop stop-color="#37FDA1"/>
<stop offset="1" stop-color="#1BEAB7"/>
</linearGradient>
<linearGradient id="paint11_linear_202_243" x1="0" y1="62" x2="124" y2="62" gradientUnits="userSpaceOnUse">
<stop stop-color="#37FDA1"/>
<stop offset="1" stop-color="#1BEAB7"/>
</linearGradient>
</defs>
</svg>
