<svg width="1024" height="1024" viewBox="0 0 1024 1024" fill="none" xmlns="http://www.w3.org/2000/svg">
<rect x="235" y="168" width="554" height="689" rx="65" fill="url(#paint0_linear_201_69)"/>
<path d="M697.681 429.394C703.538 423.536 713.036 423.535 718.894 429.393L734.313 444.811C740.171 450.668 740.172 460.165 734.315 466.024L548.074 652.286C542.217 658.144 532.72 658.145 526.861 652.287L511.443 636.87C511.14 636.568 510.854 636.255 510.583 635.935L435.393 560.735C429.535 554.877 429.536 545.38 435.394 539.523L446.623 528.295C452.481 522.438 461.979 522.438 467.836 528.296L526.241 586.708C530.147 590.614 536.479 590.614 540.384 586.708L697.681 429.394Z" fill="#00E880"/>
<circle cx="352.5" cy="430.5" r="40.75" fill="#033537" stroke="black" stroke-width="0.5"/>
<circle cx="352.5" cy="544.5" r="40.75" fill="#033537" stroke="black" stroke-width="0.5"/>
<circle cx="352.5" cy="658.5" r="40.75" fill="#033537" stroke="black" stroke-width="0.5"/>
<circle cx="352.5" cy="772.5" r="40.75" fill="#033537" stroke="black" stroke-width="0.5"/>
<rect x="312" y="241" width="358" height="37" rx="18.5" fill="#00E880"/>
<rect x="312" y="315" width="240" height="37" rx="18.5" fill="#00E880"/>
<defs>
<linearGradient id="paint0_linear_201_69" x1="253.667" y1="186.331" x2="799.107" y2="831.131" gradientUnits="userSpaceOnUse">
<stop stop-color="#014442"/>
<stop offset="1" stop-color="#003C3B"/>
</linearGradient>
</defs>
</svg>
