<svg width="1024" height="1024" viewBox="0 0 1024 1024" fill="none" xmlns="http://www.w3.org/2000/svg">
<rect x="239" y="228" width="515" height="630" rx="38" fill="#014442"/>
<rect x="305.25" y="299.25" width="383.5" height="33.5" rx="16.75" fill="#033537" stroke="black" stroke-width="0.5"/>
<rect x="448.25" y="404.25" width="240.5" height="33.5" rx="16.75" fill="#033537" stroke="black" stroke-width="0.5"/>
<rect x="448.25" y="528.25" width="100.5" height="33.5" rx="16.75" fill="#033537" stroke="black" stroke-width="0.5"/>
<mask id="path-5-inside-1_201_120" fill="white">
<path d="M404.926 392.171C406.879 390.219 410.045 390.218 411.998 392.17L419.829 400C421.781 401.953 421.782 405.119 419.83 407.072L342.509 484.402C340.557 486.354 337.391 486.355 335.438 484.403L327.607 476.573C327.496 476.462 327.392 476.347 327.294 476.229L296.67 445.601C294.717 443.648 294.718 440.482 296.671 438.53L302.797 432.404C304.75 430.452 307.915 430.451 309.868 432.404L336.576 459.115C336.966 459.506 337.599 459.506 337.99 459.115L404.926 392.171Z"/>
</mask>
<path d="M404.926 392.171C406.879 390.219 410.045 390.218 411.998 392.17L419.829 400C421.781 401.953 421.782 405.119 419.83 407.072L342.509 484.402C340.557 486.354 337.391 486.355 335.438 484.403L327.607 476.573C327.496 476.462 327.392 476.347 327.294 476.229L296.67 445.601C294.717 443.648 294.718 440.482 296.671 438.53L302.797 432.404C304.75 430.452 307.915 430.451 309.868 432.404L336.576 459.115C336.966 459.506 337.599 459.506 337.99 459.115L404.926 392.171Z" fill="#033537"/>
<path d="M404.926 392.171L405.28 392.525V392.525L404.926 392.171ZM411.998 392.17L412.351 391.817L412.351 391.817L411.998 392.17ZM419.829 400L419.475 400.354L419.829 400ZM419.83 407.072L420.183 407.425L420.183 407.425L419.83 407.072ZM342.509 484.402L342.863 484.755L342.509 484.402ZM335.438 484.403L335.085 484.756L335.085 484.756L335.438 484.403ZM327.607 476.573L327.961 476.219L327.607 476.573ZM327.294 476.229L327.678 475.909L327.663 475.892L327.647 475.875L327.294 476.229ZM296.67 445.601L296.316 445.955L296.316 445.955L296.67 445.601ZM296.671 438.53L296.317 438.176L296.317 438.176L296.671 438.53ZM302.797 432.404L302.444 432.05L302.444 432.05L302.797 432.404ZM309.868 432.404L310.221 432.05L310.221 432.05L309.868 432.404ZM336.576 459.115L336.929 458.762L336.576 459.115ZM337.99 459.115L338.344 459.469L337.99 459.115ZM404.926 392.171L405.28 392.525C407.037 390.767 409.887 390.767 411.644 392.524L411.998 392.17L412.351 391.817C410.203 389.669 406.72 389.67 404.573 391.818L404.926 392.171ZM411.998 392.17L411.644 392.524L419.475 400.354L419.829 400L420.182 399.647L412.351 391.817L411.998 392.17ZM419.829 400L419.475 400.354C421.233 402.111 421.233 404.961 419.476 406.718L419.83 407.072L420.183 407.425C422.331 405.277 422.33 401.795 420.182 399.647L419.829 400ZM419.83 407.072L419.476 406.718L342.156 484.048L342.509 484.402L342.863 484.755L420.183 407.425L419.83 407.072ZM342.509 484.402L342.156 484.048C340.399 485.806 337.549 485.806 335.792 484.049L335.438 484.403L335.085 484.756C337.233 486.904 340.715 486.903 342.863 484.755L342.509 484.402ZM335.438 484.403L335.792 484.049L327.961 476.219L327.607 476.573L327.253 476.926L335.085 484.756L335.438 484.403ZM327.607 476.573L327.961 476.219C327.861 476.12 327.767 476.016 327.678 475.909L327.294 476.229L326.909 476.549C327.017 476.678 327.132 476.805 327.253 476.926L327.607 476.573ZM327.294 476.229L327.647 475.875L297.023 445.247L296.67 445.601L296.316 445.955L326.94 476.582L327.294 476.229ZM296.67 445.601L297.023 445.248C295.266 443.49 295.267 440.641 297.024 438.883L296.671 438.53L296.317 438.176C294.169 440.324 294.168 443.806 296.316 445.955L296.67 445.601ZM296.671 438.53L297.024 438.883L303.151 432.757L302.797 432.404L302.444 432.05L296.317 438.176L296.671 438.53ZM302.797 432.404L303.151 432.757C304.908 431 307.757 431 309.514 432.757L309.868 432.404L310.221 432.05C308.074 429.903 304.592 429.903 302.444 432.05L302.797 432.404ZM309.868 432.404L309.514 432.757L336.222 459.469L336.576 459.115L336.929 458.762L310.221 432.05L309.868 432.404ZM337.99 459.115L338.344 459.469L405.28 392.525L404.926 392.171L404.573 391.818L337.636 458.762L337.99 459.115ZM336.576 459.115L336.222 459.469C336.808 460.055 337.758 460.055 338.344 459.469L337.99 459.115L337.636 458.762C337.441 458.957 337.125 458.957 336.929 458.762L336.576 459.115Z" fill="black" mask="url(#path-5-inside-1_201_120)"/>
<mask id="path-7-inside-2_201_120" fill="white">
<path d="M404.926 515.465C406.879 513.512 410.045 513.512 411.998 515.464L419.829 523.294C421.781 525.246 421.782 528.412 419.83 530.365L342.509 607.695C340.557 609.648 337.391 609.649 335.438 607.696L327.607 599.866C327.496 599.756 327.392 599.64 327.294 599.522L296.67 568.895C294.717 566.942 294.718 563.776 296.671 561.823L302.797 555.697C304.75 553.745 307.915 553.745 309.868 555.697L336.576 582.409C336.966 582.8 337.599 582.8 337.99 582.409L404.926 515.465Z"/>
</mask>
<path d="M404.926 515.465C406.879 513.512 410.045 513.512 411.998 515.464L419.829 523.294C421.781 525.246 421.782 528.412 419.83 530.365L342.509 607.695C340.557 609.648 337.391 609.649 335.438 607.696L327.607 599.866C327.496 599.756 327.392 599.64 327.294 599.522L296.67 568.895C294.717 566.942 294.718 563.776 296.671 561.823L302.797 555.697C304.75 553.745 307.915 553.745 309.868 555.697L336.576 582.409C336.966 582.8 337.599 582.8 337.99 582.409L404.926 515.465Z" fill="#033537"/>
<path d="M404.926 515.465L405.28 515.818V515.818L404.926 515.465ZM411.998 515.464L412.351 515.11L412.351 515.11L411.998 515.464ZM419.829 523.294L419.475 523.648L419.829 523.294ZM419.83 530.365L420.183 530.719L420.183 530.719L419.83 530.365ZM342.509 607.695L342.863 608.049L342.509 607.695ZM335.438 607.696L335.085 608.05L335.085 608.05L335.438 607.696ZM327.607 599.866L327.961 599.513L327.607 599.866ZM327.294 599.522L327.678 599.203L327.663 599.185L327.647 599.169L327.294 599.522ZM296.67 568.895L296.316 569.248L296.316 569.248L296.67 568.895ZM296.671 561.823L296.317 561.47L296.317 561.47L296.671 561.823ZM302.797 555.697L302.444 555.344L302.444 555.344L302.797 555.697ZM309.868 555.697L310.221 555.344L310.221 555.344L309.868 555.697ZM336.576 582.409L336.929 582.055L336.576 582.409ZM337.99 582.409L338.344 582.763L337.99 582.409ZM404.926 515.465L405.28 515.818C407.037 514.061 409.887 514.06 411.644 515.817L411.998 515.464L412.351 515.11C410.203 512.963 406.72 512.963 404.573 515.111L404.926 515.465ZM411.998 515.464L411.644 515.817L419.475 523.648L419.829 523.294L420.182 522.94L412.351 515.11L411.998 515.464ZM419.829 523.294L419.475 523.648C421.233 525.405 421.233 528.254 419.476 530.012L419.83 530.365L420.183 530.719C422.331 528.571 422.33 525.088 420.182 522.94L419.829 523.294ZM419.83 530.365L419.476 530.012L342.156 607.342L342.509 607.695L342.863 608.049L420.183 530.719L419.83 530.365ZM342.509 607.695L342.156 607.342C340.399 609.099 337.549 609.1 335.792 607.343L335.438 607.696L335.085 608.05C337.233 610.197 340.715 610.197 342.863 608.049L342.509 607.695ZM335.438 607.696L335.792 607.343L327.961 599.513L327.607 599.866L327.253 600.22L335.085 608.05L335.438 607.696ZM327.607 599.866L327.961 599.513C327.861 599.413 327.767 599.309 327.678 599.203L327.294 599.522L326.909 599.842C327.017 599.972 327.132 600.098 327.253 600.22L327.607 599.866ZM327.294 599.522L327.647 599.169L297.023 568.541L296.67 568.895L296.316 569.248L326.94 599.876L327.294 599.522ZM296.67 568.895L297.023 568.541C295.266 566.784 295.267 563.934 297.024 562.177L296.671 561.823L296.317 561.47C294.169 563.617 294.168 567.1 296.316 569.248L296.67 568.895ZM296.671 561.823L297.024 562.177L303.151 556.051L302.797 555.697L302.444 555.344L296.317 561.47L296.671 561.823ZM302.797 555.697L303.151 556.051C304.908 554.294 307.757 554.294 309.514 556.051L309.868 555.697L310.221 555.344C308.074 553.196 304.592 553.196 302.444 555.344L302.797 555.697ZM309.868 555.697L309.514 556.051L336.222 582.763L336.576 582.409L336.929 582.055L310.221 555.344L309.868 555.697ZM337.99 582.409L338.344 582.763L405.28 515.818L404.926 515.465L404.573 515.111L337.636 582.055L337.99 582.409ZM336.576 582.409L336.222 582.763C336.808 583.348 337.758 583.348 338.344 582.763L337.99 582.409L337.636 582.055C337.441 582.251 337.125 582.251 336.929 582.055L336.576 582.409Z" fill="black" mask="url(#path-7-inside-2_201_120)"/>
<mask id="path-9-inside-3_201_120" fill="white">
<path d="M404.926 640.171C406.879 638.219 410.045 638.218 411.998 640.17L419.829 648C421.781 649.953 421.782 653.119 419.83 655.072L342.509 732.402C340.557 734.354 337.391 734.355 335.438 732.403L327.607 724.573C327.496 724.462 327.392 724.347 327.294 724.229L296.67 693.601C294.717 691.648 294.718 688.482 296.671 686.53L302.797 680.404C304.75 678.452 307.915 678.451 309.868 680.404L336.576 707.115C336.966 707.506 337.599 707.506 337.99 707.115L404.926 640.171Z"/>
</mask>
<path d="M404.926 640.171C406.879 638.219 410.045 638.218 411.998 640.17L419.829 648C421.781 649.953 421.782 653.119 419.83 655.072L342.509 732.402C340.557 734.354 337.391 734.355 335.438 732.403L327.607 724.573C327.496 724.462 327.392 724.347 327.294 724.229L296.67 693.601C294.717 691.648 294.718 688.482 296.671 686.53L302.797 680.404C304.75 678.452 307.915 678.451 309.868 680.404L336.576 707.115C336.966 707.506 337.599 707.506 337.99 707.115L404.926 640.171Z" fill="#033537"/>
<path d="M404.926 640.171L405.28 640.525V640.525L404.926 640.171ZM411.998 640.17L412.351 639.817L412.351 639.817L411.998 640.17ZM419.829 648L419.475 648.354L419.829 648ZM419.83 655.072L420.183 655.425L420.183 655.425L419.83 655.072ZM342.509 732.402L342.863 732.755L342.509 732.402ZM335.438 732.403L335.085 732.756L335.085 732.756L335.438 732.403ZM327.607 724.573L327.961 724.219L327.607 724.573ZM327.294 724.229L327.678 723.909L327.663 723.892L327.647 723.875L327.294 724.229ZM296.67 693.601L296.316 693.955L296.316 693.955L296.67 693.601ZM296.671 686.53L296.317 686.176L296.317 686.176L296.671 686.53ZM302.797 680.404L302.444 680.05L302.444 680.05L302.797 680.404ZM309.868 680.404L310.221 680.05L310.221 680.05L309.868 680.404ZM336.576 707.115L336.929 706.762L336.576 707.115ZM337.99 707.115L338.344 707.469L337.99 707.115ZM404.926 640.171L405.28 640.525C407.037 638.767 409.887 638.767 411.644 640.524L411.998 640.17L412.351 639.817C410.203 637.669 406.72 637.67 404.573 639.818L404.926 640.171ZM411.998 640.17L411.644 640.524L419.475 648.354L419.829 648L420.182 647.647L412.351 639.817L411.998 640.17ZM419.829 648L419.475 648.354C421.233 650.111 421.233 652.961 419.476 654.718L419.83 655.072L420.183 655.425C422.331 653.277 422.33 649.795 420.182 647.647L419.829 648ZM419.83 655.072L419.476 654.718L342.156 732.048L342.509 732.402L342.863 732.755L420.183 655.425L419.83 655.072ZM342.509 732.402L342.156 732.048C340.399 733.806 337.549 733.806 335.792 732.049L335.438 732.403L335.085 732.756C337.233 734.904 340.715 734.903 342.863 732.755L342.509 732.402ZM335.438 732.403L335.792 732.049L327.961 724.219L327.607 724.573L327.253 724.926L335.085 732.756L335.438 732.403ZM327.607 724.573L327.961 724.219C327.861 724.12 327.767 724.016 327.678 723.909L327.294 724.229L326.909 724.549C327.017 724.678 327.132 724.805 327.253 724.926L327.607 724.573ZM327.294 724.229L327.647 723.875L297.023 693.247L296.67 693.601L296.316 693.955L326.94 724.582L327.294 724.229ZM296.67 693.601L297.023 693.248C295.266 691.49 295.267 688.641 297.024 686.883L296.671 686.53L296.317 686.176C294.169 688.324 294.168 691.806 296.316 693.955L296.67 693.601ZM296.671 686.53L297.024 686.883L303.151 680.757L302.797 680.404L302.444 680.05L296.317 686.176L296.671 686.53ZM302.797 680.404L303.151 680.757C304.908 679 307.757 679 309.514 680.757L309.868 680.404L310.221 680.05C308.074 677.903 304.592 677.903 302.444 680.05L302.797 680.404ZM309.868 680.404L309.514 680.757L336.222 707.469L336.576 707.115L336.929 706.762L310.221 680.05L309.868 680.404ZM337.99 707.115L338.344 707.469L405.28 640.525L404.926 640.171L404.573 639.818L337.636 706.762L337.99 707.115ZM336.576 707.115L336.222 707.469C336.808 708.055 337.758 708.055 338.344 707.469L337.99 707.115L337.636 706.762C337.441 706.957 337.125 706.957 336.929 706.762L336.576 707.115Z" fill="black" mask="url(#path-9-inside-3_201_120)"/>
<g filter="url(#filter0_dd_201_120)">
<path d="M664 517C672.284 517 679 523.716 679 532V547C679 555.284 672.284 562 664 562H658V574.626C729.713 587.999 784 650.909 784 726.5C784 811.828 714.828 881 629.5 881C544.172 881 475 811.828 475 726.5C475 650.909 529.287 587.999 601 574.626V562H596C587.716 562 581 555.284 581 547V532C581 523.716 587.716 517 596 517H664ZM630 602C560.964 602 505 657.964 505 727C505 796.036 560.964 852 630 852C699.036 852 755 796.036 755 727C755 657.964 699.036 602 630 602ZM628.501 633C636.509 633 643.001 639.492 643.001 647.5V714.485L683.653 756.13C689.247 761.86 689.136 771.041 683.406 776.635L682.307 777.708C676.576 783.302 667.396 783.192 661.802 777.462L618.109 732.704C615.194 729.718 613.829 725.794 614.001 721.93V647.5C614.001 639.492 620.493 633 628.501 633Z" fill="#00E880"/>
</g>
<defs>
<filter id="filter0_dd_201_120" x="375" y="417" width="509" height="564" filterUnits="userSpaceOnUse" color-interpolation-filters="sRGB">
<feFlood flood-opacity="0" result="BackgroundImageFix"/>
<feColorMatrix in="SourceAlpha" type="matrix" values="0 0 0 0 0 0 0 0 0 0 0 0 0 0 0 0 0 0 127 0" result="hardAlpha"/>
<feOffset/>
<feGaussianBlur stdDeviation="50"/>
<feComposite in2="hardAlpha" operator="out"/>
<feColorMatrix type="matrix" values="0 0 0 0 0 0 0 0 0 0.909804 0 0 0 0 0.501961 0 0 0 0.5 0"/>
<feBlend mode="normal" in2="BackgroundImageFix" result="effect1_dropShadow_201_120"/>
<feColorMatrix in="SourceAlpha" type="matrix" values="0 0 0 0 0 0 0 0 0 0 0 0 0 0 0 0 0 0 127 0" result="hardAlpha"/>
<feOffset/>
<feGaussianBlur stdDeviation="10"/>
<feComposite in2="hardAlpha" operator="out"/>
<feColorMatrix type="matrix" values="0 0 0 0 0 0 0 0 0 0 0 0 0 0 0 0 0 0 0.5 0"/>
<feBlend mode="normal" in2="effect1_dropShadow_201_120" result="effect2_dropShadow_201_120"/>
<feBlend mode="normal" in="SourceGraphic" in2="effect2_dropShadow_201_120" result="shape"/>
</filter>
</defs>
</svg>
